# xmcd CD database file
#
# Track frame offsets:
#	182
#	23120
#	41780
#	61020
#	78475
#	92587
#	112995
#	140050
#	160867
#	179210
#	202515
#	224795
#	248495
#
# Disc length: 3642 seconds
#
# Revision: 0
# Processed by: cddbd v1.5.2PL0 Copyright (c) Steve Scherf et al.
# Submitted via: CDex 1.40Beta9
#
DISCID=b00e380d
DTITLE=Bobby Mack and Night Train - Honeytrap
DYEAR=1993
DGENRE=Blues
TTITLE0=Honeytrap
TTITLE1=Promise Me Love
TTITLE2=Only Getting Second Best
TTITLE3=Love Can Be Cruel
TTITLE4=Get Your Love
TTITLE5=Tell Me Who (Do You Love)
TTITLE6=That's Alright
TTITLE7=Drivin' Sideways
TTITLE8=Come Back Baby
TTITLE9=Eazy Baby
TTITLE10=Got A feeling
TTITLE11=I'm Gonna Love You
TTITLE12=So Low Down
EXTD=YEAR: 1993 ID3G: 0
EXTT0=
EXTT1=
EXTT2=
EXTT3=
EXTT4=
EXTT5=
EXTT6=
EXTT7=
EXTT8=
EXTT9=
EXTT10=
EXTT11=
EXTT12=
PLAYORDER=
